<svg xmlns="http://www.w3.org/2000/svg" width="12.464" height="13.433" viewBox="0 0 12.464 13.433"><path d="M12.4,75.305V66.2H24.864v9.105Zm3.123-5.989v1.925h.471v2.381h5.283V71.234h.463V69.3H20.635l.086-.093A1.063,1.063,0,0,0,20.885,68,1.085,1.085,0,0,0,18.9,68.1c-.057.15-.107.307-.164.456l-.1.271c-.107-.292-.185-.549-.292-.784a1.077,1.077,0,0,0-1.961-.021,1.04,1.04,0,0,0,.143,1.162l.114.135Z" transform="translate(-12.4 -61.872)" fill="#f80"/><path d="M12.4,28.181V25.8h1.433v.185a7.416,7.416,0,0,0,.029.977.935.935,0,0,0,1.012.749.97.97,0,0,0,.877-.927c.007-.321,0-.649,0-.977h5.761v.97a.963.963,0,0,0,.977.934.948.948,0,0,0,.941-.934c.007-.321,0-.642,0-.977h1.433v2.381Z" transform="translate(-12.4 -24.353)" fill="#f80"/><path d="M40.163,6.933v.934a.488.488,0,0,1-.485.513.478.478,0,0,1-.478-.513V6.006a.48.48,0,0,1,.478-.506.49.49,0,0,1,.485.506Z" transform="translate(-37.289 -5.5)" fill="#f80"/><path d="M146.959,6.933c0-.307-.007-.606,0-.913a.48.48,0,1,1,.955.007V7.853a.478.478,0,0,1-.471.528.488.488,0,0,1-.485-.528Z" transform="translate(-137.361 -5.5)" fill="#f80"/><path d="M71.119,137v1.9H69.7V137Z" transform="translate(-65.614 -127.624)" fill="#f80"/><path d="M111.519,137v1.9H110.1V137Z" transform="translate(-103.134 -127.624)" fill="#f80"/><path d="M64.8,117.741H62.9V116.8h1.9Z" transform="translate(-59.299 -108.864)" fill="#f80"/><path d="M110,117.641V116.7h1.9v.941Z" transform="translate(-103.041 -108.771)" fill="#f80"/><path d="M97.063,116.7v3.344H96.6V116.7Z" transform="translate(-90.596 -108.771)" fill="#f80"/><path d="M104.8,90.919c.135-.371.25-.72.392-1.055a.514.514,0,0,1,.67-.307.62.62,0,0,1,.471.585.606.606,0,0,1-.463.592C105.527,90.805,105.185,90.855,104.8,90.919Z" transform="translate(-98.212 -83.539)" fill="#f80"/><path d="M74.832,91.042c-.378-.064-.727-.114-1.07-.185a.6.6,0,0,1-.463-.592.627.627,0,0,1,.471-.585.58.58,0,0,1,.677.321C74.554,90.265,74.7,90.671,74.832,91.042Z" transform="translate(-68.957 -83.662)" fill="#f80"/></svg>