<svg xmlns="http://www.w3.org/2000/svg" width="28.777" height="28.758" viewBox="0 0 28.777 28.758"><path d="M213.76,120.993h2.247c.028.071.09.051.144.056a14.382,14.382,0,0,1,12.932,16.638,14.412,14.412,0,0,1-16.139,11.93,13.835,13.835,0,0,1-8.116-3.972,14.159,14.159,0,0,1-4.169-8.141,3.857,3.857,0,0,0-.158-.949V134.2c.071-.028.054-.09.059-.144q.076-.737.215-1.471a14.409,14.409,0,0,1,11.978-11.43A4.868,4.868,0,0,0,213.76,120.993Zm1.138,5.395a29.088,29.088,0,0,0-3.246.229,5.692,5.692,0,0,0-3.481,1.575,5.2,5.2,0,0,0-1.615,2.639,16.286,16.286,0,0,0-.2,5.776,5.85,5.85,0,0,0,.678,2.352,6.212,6.212,0,0,0,3.176,2.679.249.249,0,0,1,.195.282c-.008.517,0,1.03-.006,1.544a.784.784,0,0,0,1.414.565c.556-.584,1.118-1.16,1.674-1.742a.371.371,0,0,1,.311-.147,24.336,24.336,0,0,0,4.229-.183,5.752,5.752,0,0,0,3.314-1.361,5.377,5.377,0,0,0,1.866-2.862,17.184,17.184,0,0,0,.217-5.776,5.7,5.7,0,0,0-1.544-3.495,5.5,5.5,0,0,0-2.769-1.671A21.513,21.513,0,0,0,214.9,126.388Z" transform="translate(-200.501 -120.993)" fill="#493584"/><path d="M211.226,122.9a21.513,21.513,0,0,1,4.212.4,5.5,5.5,0,0,1,2.769,1.671,5.7,5.7,0,0,1,1.544,3.495,17.184,17.184,0,0,1-.217,5.776,5.377,5.377,0,0,1-1.866,2.862,5.752,5.752,0,0,1-3.314,1.361,24.336,24.336,0,0,1-4.229.183.371.371,0,0,0-.311.147c-.556.582-1.118,1.157-1.674,1.742a.784.784,0,0,1-1.414-.565c.006-.514,0-1.028.006-1.544a.249.249,0,0,0-.195-.282,6.212,6.212,0,0,1-3.176-2.679,5.85,5.85,0,0,1-.678-2.352,16.286,16.286,0,0,1,.2-5.776,5.2,5.2,0,0,1,1.615-2.639,5.692,5.692,0,0,1,3.481-1.575A29.088,29.088,0,0,1,211.226,122.9Zm-3.851,15.526c0,.469,0,.937,0,1.4,0,.116-.042.26.11.316s.22-.071.3-.155c.85-.869,1.7-1.736,2.543-2.617a.759.759,0,0,1,.632-.263,16.136,16.136,0,0,0,4.071-.356,4.247,4.247,0,0,0,2.86-2.453,1.685,1.685,0,0,0,.116-.373,15.117,15.117,0,0,0,.155-5.5,3.876,3.876,0,0,0-.776-2.01,4.235,4.235,0,0,0-2.309-1.6,17.7,17.7,0,0,0-3.229-.356,22.28,22.28,0,0,0-4.11.277,4.353,4.353,0,0,0-3.2,2.476,1.789,1.789,0,0,0-.141.452,14.83,14.83,0,0,0-.088,5.827,4.2,4.2,0,0,0,2.826,3.21c.167.071.237.135.234.316C207.367,137.5,207.375,137.962,207.375,138.43Z" transform="translate(-196.828 -117.509)" fill="#fdfcfe"/><path d="M206.371,137.423c0-.469-.008-.934,0-1.4,0-.181-.068-.246-.234-.316a4.2,4.2,0,0,1-2.826-3.21,14.83,14.83,0,0,1,.088-5.827,1.789,1.789,0,0,1,.141-.452,4.353,4.353,0,0,1,3.2-2.476,22.28,22.28,0,0,1,4.11-.277,17.7,17.7,0,0,1,3.229.356,4.235,4.235,0,0,1,2.309,1.6,3.876,3.876,0,0,1,.776,2.01,15.117,15.117,0,0,1-.155,5.5,1.685,1.685,0,0,1-.116.373,4.247,4.247,0,0,1-2.86,2.453,16.136,16.136,0,0,1-4.071.356.759.759,0,0,0-.632.263c-.841.881-1.694,1.747-2.543,2.617-.085.085-.158.209-.3.155s-.107-.2-.11-.316C206.368,138.36,206.371,137.892,206.371,137.423Zm4.494-5.369c-.042-.008-.1-.017-.152-.031a2.027,2.027,0,0,1-.214-.059,4.062,4.062,0,0,1-2.4-2.549.532.532,0,0,1,.164-.635l.282-.232a.71.71,0,0,0,.192-.974,8.7,8.7,0,0,0-1.115-1.544.544.544,0,0,0-.689-.138,2.519,2.519,0,0,0-1.008.827,1.014,1.014,0,0,0-.116,1.132,4.248,4.248,0,0,1,.192.466,10.482,10.482,0,0,0,6.236,6.007,1.026,1.026,0,0,0,.985-.056,2.384,2.384,0,0,0,.937-1.053.561.561,0,0,0-.161-.754,12.65,12.65,0,0,0-1.527-1.1.662.662,0,0,0-.867.124c-.11.116-.2.248-.3.367A.538.538,0,0,1,210.865,132.054Zm-.548-6.73c-.048,0-.093,0-.141,0-.184-.008-.33.056-.336.251s.158.231.313.251l.474.048a3.712,3.712,0,0,1,3.294,3.012c.059.33.073.669.107,1,.02.175.054.359.285.336.209-.02.229-.183.215-.356-.02-.206-.037-.412-.054-.615A4.324,4.324,0,0,0,210.317,125.324Zm3.086,3.992a2.937,2.937,0,0,0-2.831-2.865c-.175-.008-.333.014-.35.223s.141.26.313.277c.037,0,.076,0,.113.008a2.406,2.406,0,0,1,2.236,2.083c.025.167.017.336.034.5a.232.232,0,0,0,.231.237.239.239,0,0,0,.254-.243A1.938,1.938,0,0,0,213.4,129.315Zm-1.115-.234a1.427,1.427,0,0,0-1.346-1.454c-.175-.014-.361-.025-.392.2s.158.277.33.288a.92.92,0,0,1,.754.418,1.326,1.326,0,0,1,.172.584c.02.164.09.3.277.291S212.3,129.242,212.287,129.081Z" transform="translate(-195.824 -116.502)" fill="#493584"/><path d="M209.176,130.525a.538.538,0,0,0,.432-.2c.1-.119.195-.251.3-.367a.662.662,0,0,1,.867-.124,12.65,12.65,0,0,1,1.527,1.1.561.561,0,0,1,.161.754,2.384,2.384,0,0,1-.937,1.053,1.026,1.026,0,0,1-.985.056,10.482,10.482,0,0,1-6.236-6.007,4.248,4.248,0,0,0-.192-.466,1.014,1.014,0,0,1,.116-1.132,2.519,2.519,0,0,1,1.008-.827.544.544,0,0,1,.689.138,8.7,8.7,0,0,1,1.115,1.544.71.71,0,0,1-.192.974l-.282.232a.532.532,0,0,0-.164.635,4.062,4.062,0,0,0,2.4,2.549,2.027,2.027,0,0,0,.214.059C209.077,130.508,209.133,130.516,209.176,130.525Z" transform="translate(-194.135 -114.973)" fill="#fdfcfe"/><path d="M205.943,124.118a4.324,4.324,0,0,1,4.158,3.93c.017.2.034.409.054.615.014.172-.006.336-.215.356-.232.023-.265-.161-.285-.336-.034-.333-.048-.672-.107-1a3.712,3.712,0,0,0-3.294-3.012l-.474-.048c-.155-.02-.319-.056-.313-.251s.152-.26.336-.251C205.85,124.121,205.9,124.118,205.943,124.118Z" transform="translate(-191.45 -115.297)" fill="#fdfcfe"/><path d="M208.783,127.383a1.938,1.938,0,0,1,0,.223.239.239,0,0,1-.254.243.232.232,0,0,1-.231-.237c-.017-.167-.008-.336-.034-.5a2.406,2.406,0,0,0-2.236-2.083c-.037-.006-.076-.006-.113-.008-.172-.017-.33-.068-.313-.277s.175-.232.35-.223A2.937,2.937,0,0,1,208.783,127.383Z" transform="translate(-191.205 -114.57)" fill="#fdfcfe"/><path d="M207.458,126.392c.014.161-.006.316-.206.33s-.257-.127-.277-.291a1.326,1.326,0,0,0-.172-.584.92.92,0,0,0-.754-.418c-.172-.011-.359-.056-.33-.288s.217-.217.392-.2A1.427,1.427,0,0,1,207.458,126.392Z" transform="translate(-190.994 -113.813)" fill="#fdfcfe"/></svg>