<svg xmlns="http://www.w3.org/2000/svg" width="36.697" height="36.686" viewBox="0 0 36.697 36.686"><path d="M45.2,64.624v-2.15c.028-.258.058-.515.086-.776a18.4,18.4,0,0,1,15.1-16.213c.69-.125,1.391-.194,2.087-.285h2.15c.091.019.183.044.277.058,1.059.172,2.136.258,3.173.521A18.314,18.314,0,0,1,81.652,66.5,18.373,18.373,0,0,1,60.587,81.635a17.743,17.743,0,0,1-9.815-4.943,18,18,0,0,1-5.284-9.951C45.361,66.04,45.294,65.331,45.2,64.624Zm29.655,11.6A1.075,1.075,0,0,0,75,76.116c.474-.485.984-.945,1.416-1.466a16.481,16.481,0,0,0,3.516-15.612A17,17,0,1,0,51.57,75.614c.571.576.576.571,1.264.191l.125-.069c1.613-.878,3.223-1.765,4.841-2.635a1.645,1.645,0,0,0,.945-1.593c-.008-.466.019-.931-.011-1.4a1.243,1.243,0,0,0-.2-.618A13.244,13.244,0,0,1,56.758,65.8a1.3,1.3,0,0,0-.274-.485,2.325,2.325,0,0,1-.676-1.538c-.019-.87-.055-1.746.011-2.613a5.8,5.8,0,0,1,.421-1.3,1.6,1.6,0,0,0,.133-.463q.014-1.629-.006-3.261a5.146,5.146,0,0,1,3.173-4.852,10.649,10.649,0,0,1,7.534-.194,5.151,5.151,0,0,1,3.649,5.312c-.017,1.017-.008,2.031,0,3.048a1.488,1.488,0,0,0,.139.424,5.485,5.485,0,0,1,.416,1.269c.064.865.036,1.743.014,2.613a2.3,2.3,0,0,1-1.128,1.931,1.106,1.106,0,0,0-.349.416,14.91,14.91,0,0,1-1.2,2.389,4.3,4.3,0,0,0-.865,3.117,1.672,1.672,0,0,0,.937,1.527c2.045,1.028,4.093,2.05,6.163,3.087Zm-1.147.917-.382-.194q-2.591-1.3-5.184-2.591a2.88,2.88,0,0,1-1.715-2.785c0-.668-.008-1.338.006-2.006a.712.712,0,0,1,.133-.421,12.808,12.808,0,0,0,2.217-4.1.624.624,0,0,1,.308-.333,1.2,1.2,0,0,0,.9-1.269c.006-.682,0-1.361,0-2.042a1.318,1.318,0,0,0-.41-.995.617.617,0,0,1-.18-.391c-.011-1.23-.019-2.461.011-3.691a3.9,3.9,0,0,0-2.516-3.877,9.416,9.416,0,0,0-6.357-.122,3.885,3.885,0,0,0-2.849,3.9c.017,1.23.025,2.461.017,3.688a1.594,1.594,0,0,1-.208.529,3.129,3.129,0,0,0-.366.9c-.053.723-.019,1.455-.017,2.184a1.256,1.256,0,0,0,.526,1.045.809.809,0,0,1,.28.416,11.577,11.577,0,0,0,2.017,4.156.786.786,0,0,1,.136.424c.014.632,0,1.266.008,1.9A2.948,2.948,0,0,1,58.387,74.3c-1.588.845-3.164,1.721-4.744,2.583-.114.061-.219.13-.335.2A16.889,16.889,0,0,0,73.708,77.144Z" transform="translate(-45.2 -45.2)" fill="#273c4d"/></svg>