<svg xmlns="http://www.w3.org/2000/svg" width="19.281" height="19.281" viewBox="0 0 19.281 19.281"><path d="M4.519,106.081a5.09,5.09,0,0,1,.72-2.616v-3.25H1.989a9.645,9.645,0,0,0,0,11.733h3.25V108.7A5.09,5.09,0,0,1,4.519,106.081Z" transform="translate(0 -96.441)" fill="#fbbd00"/><path d="M198.259,373.678,196,375.937l2.259,2.259a9.567,9.567,0,0,0,5.866-1.989v-3.247h-3.247A5.12,5.12,0,0,1,198.259,373.678Z" transform="translate(-188.619 -358.916)" fill="#0f9d58"/><path d="M56.073,325.477l-3.25,3.25a9.794,9.794,0,0,0,.834.95,9.577,9.577,0,0,0,6.817,2.824v-4.519A5.123,5.123,0,0,1,56.073,325.477Z" transform="translate(-50.834 -313.22)" fill="#31aa52"/><path d="M265.64,199.534a9.727,9.727,0,0,0-.158-1.746l-.085-.463H256v4.519h4.574a5.1,5.1,0,0,1-1.954,2.1l3.247,3.247a9.792,9.792,0,0,0,.95-.834A9.577,9.577,0,0,0,265.64,199.534Z" transform="translate(-246.36 -189.893)" fill="#3c79e6"/><path d="M201.881,6.019l.4.4,3.2-3.2-.4-.4A9.577,9.577,0,0,0,198.259,0L196,2.259l2.259,2.259A5.088,5.088,0,0,1,201.881,6.019Z" transform="translate(-188.619)" fill="#cf2d48"/><path d="M60.473,4.519V0a9.577,9.577,0,0,0-6.817,2.824,9.786,9.786,0,0,0-.834.95l3.25,3.25a5.124,5.124,0,0,1,4.4-2.505Z" transform="translate(-50.833 0)" fill="#eb4132"/></svg>