<svg xmlns="http://www.w3.org/2000/svg" width="14.048" height="18.757" viewBox="0 0 14.048 18.757"><path d="M183.079,80.145a3.516,3.516,0,1,0,3.512,3.517A3.518,3.518,0,0,0,183.079,80.145Zm0,6.446a2.93,2.93,0,1,1,2.926-2.929A2.93,2.93,0,0,1,183.079,86.591Zm0-9.814a7.012,7.012,0,0,0-7.024,7.035c0,4.1,3.512,8.3,6.073,11.251a1.442,1.442,0,0,0,.93.472h.043a1.442,1.442,0,0,0,.93-.472c2.561-2.95,6.073-7.147,6.073-11.251A7.014,7.014,0,0,0,183.079,76.777Zm.067,17.515c-.011.011-.048.037-.077.059-.005-.019-.051-.053-.075-.08-2.145-2.47-5.769-6.643-5.769-10.459a5.853,5.853,0,1,1,11.706,0C188.931,87.628,185.31,91.8,183.146,94.292Z" transform="translate(-176.055 -76.777)" fill="#fff" fill-rule="evenodd"/></svg>