<svg xmlns="http://www.w3.org/2000/svg" width="14.021" height="20.423" viewBox="0 0 14.021 20.423"><path d="M188.164,97.5h-10.2a1.913,1.913,0,0,0-1.912,1.915v16.593a1.913,1.913,0,0,0,1.912,1.915h10.2a1.913,1.913,0,0,0,1.912-1.915V99.416A1.913,1.913,0,0,0,188.164,97.5Zm.636,18.508a.638.638,0,0,1-.636.638h-10.2a.64.64,0,0,1-.638-.638V114.73H188.8Zm0-1.918H177.329V101.331H188.8Zm0-13.4H177.329V99.416a.64.64,0,0,1,.638-.638h10.2a.636.636,0,0,1,.636.638Zm-4.779-1.277h-1.91a.319.319,0,0,0,0,.638h1.91a.319.319,0,0,0,0-.638Zm-1.274,16.59h.638a.319.319,0,0,0,0-.638h-.638a.319.319,0,1,0,0,.638Z" transform="translate(-176.055 -97.501)" fill="#fff" fill-rule="evenodd"/></svg>