<svg xmlns="http://www.w3.org/2000/svg" width="28.521" height="28.524" viewBox="0 0 28.521 28.524"><path d="M187.67,149.6h-2.23c-.039-.071-.113-.051-.175-.056a14.263,14.263,0,0,1,.621-28.453,13.791,13.791,0,0,1,7.975,2.007,14.085,14.085,0,0,1,6.744,9.8,11.633,11.633,0,0,0,.212,1.33v2.23a8.532,8.532,0,0,0-.183,1.194,14.116,14.116,0,0,1-4.393,8.147,13.974,13.974,0,0,1-7.571,3.647A5.189,5.189,0,0,0,187.67,149.6Zm5.917-19c.006-.765-.4-1.067-1.019-.861-.062.02-.121.048-.184.071q-4.679,1.8-9.364,3.611-2.177.838-4.353,1.691c-.263.1-.576.243-.55.587.028.327.35.4.615.483,1.061.336,2.123.663,3.181,1a.526.526,0,0,0,.491-.059q2.469-1.567,4.943-3.119c1-.627,1.993-1.256,2.992-1.88.155-.1.378-.234.5-.071s-.121.271-.231.37c-1.922,1.747-3.842,3.5-5.79,5.222a1.741,1.741,0,0,0-.711,1.4c0,.869-.1,1.739-.172,2.608-.017.223.073.226.243.175a1.138,1.138,0,0,0,.438-.288c.494-.477,1-.94,1.476-1.437.217-.229.35-.206.582-.031,1.053.8,2.114,1.575,3.179,2.352.632.457,1.135.268,1.338-.48a1.417,1.417,0,0,0,.045-.189q1-4.675,1.987-9.352C193.361,131.764,193.531,131.137,193.587,130.6Z" transform="translate(-172.296 -121.078)" fill="#0087cc"/><path d="M189.829,125.047c-.056.539-.226,1.166-.361,1.8q-.982,4.679-1.987,9.352a1.417,1.417,0,0,1-.045.189c-.2.748-.706.937-1.338.48-1.064-.776-2.126-1.555-3.179-2.352-.232-.175-.364-.2-.582.031-.474.5-.982.96-1.476,1.437a1.138,1.138,0,0,1-.438.288c-.169.051-.26.048-.243-.175.068-.869.169-1.739.172-2.608a1.741,1.741,0,0,1,.711-1.4c1.948-1.722,3.867-3.475,5.79-5.222.11-.1.364-.2.231-.37s-.347-.028-.5.071c-1,.624-2,1.253-2.992,1.88q-2.473,1.558-4.943,3.119a.526.526,0,0,1-.491.059c-1.059-.339-2.12-.666-3.181-1-.265-.082-.587-.155-.615-.483-.025-.344.288-.483.55-.587q2.172-.855,4.353-1.691,4.683-1.808,9.364-3.611c.062-.023.121-.051.184-.071C189.425,123.98,189.834,124.282,189.829,125.047Z" transform="translate(-168.537 -115.527)" fill="#feffff"/></svg>