<svg xmlns="http://www.w3.org/2000/svg" width="28.646" height="28.633" viewBox="0 0 28.646 28.633"><path d="M215.55,134.215v2.239c-.079.037-.051.11-.056.169a14.346,14.346,0,0,1-16.376,12.867,13.757,13.757,0,0,1-8.966-5.1,13.979,13.979,0,0,1-2.97-11.848,14.34,14.34,0,0,1,11.9-11.376,4.894,4.894,0,0,0,1.03-.158h2.239c.025.071.09.051.141.056a13.7,13.7,0,0,1,5.829,1.829,14.161,14.161,0,0,1,7.077,10.343A4.551,4.551,0,0,0,215.55,134.215Zm-5.445,1.013a9.468,9.468,0,0,0-.11-1.347,8.872,8.872,0,1,0-16.791,5.163.781.781,0,0,1,.059.534q-.436,2.075-.861,4.153c-.09.426.093.6.514.505q2.079-.487,4.153-.982a.576.576,0,0,1,.4.042,8.773,8.773,0,0,0,5.2.717A8.89,8.89,0,0,0,210.1,135.228Z" transform="translate(-186.903 -121.012)" fill="#3e9926"/><path d="M206.589,131.752a8.89,8.89,0,0,1-7.436,8.785,8.773,8.773,0,0,1-5.2-.717.576.576,0,0,0-.4-.042q-2.075.5-4.153.982c-.421.1-.6-.079-.514-.505q.428-2.075.861-4.153a.781.781,0,0,0-.059-.534,8.872,8.872,0,1,1,16.791-5.163A9.468,9.468,0,0,1,206.589,131.752Zm-15.343,6.594c.833-.195,1.62-.37,2.4-.57a.889.889,0,0,1,.689.085,6.956,6.956,0,1,0-2.5-9.779,6.789,6.789,0,0,0-.243,7,1.27,1.27,0,0,1,.13.98c-.085.294-.133.6-.195.9C191.432,137.407,191.345,137.858,191.246,138.347Z" transform="translate(-183.387 -117.536)" fill="#fefefe"/><path d="M190.015,137.119c.1-.488.186-.94.279-1.392.062-.3.11-.6.195-.9a1.27,1.27,0,0,0-.13-.98,6.789,6.789,0,0,1,.243-7,6.948,6.948,0,1,1,2.5,9.779.889.889,0,0,0-.689-.085C191.635,136.749,190.848,136.924,190.015,137.119Zm8.892-2.239c.144-.017.375-.031.6-.079a2.613,2.613,0,0,0,1.6-1.3.64.64,0,0,0-.39-1.028,11.638,11.638,0,0,1-1.121-.333,1.163,1.163,0,0,0-1.541.392.6.6,0,0,1-.853.144,9.025,9.025,0,0,1-2.783-2.464.624.624,0,0,1,.02-.824c.11-.15.229-.291.339-.443a.59.59,0,0,0,.1-.6c-.246-.573-.491-1.146-.757-1.708a.585.585,0,0,0-.853-.265,2.655,2.655,0,0,0-1.208,1.646,3.551,3.551,0,0,0,.548,2.51,10.38,10.38,0,0,0,3.509,3.492A5.266,5.266,0,0,0,198.907,134.88Z" transform="translate(-182.157 -116.308)" fill="#3e9926"/><path d="M197.294,133.153a5.266,5.266,0,0,1-2.792-.87,10.38,10.38,0,0,1-3.509-3.492,3.551,3.551,0,0,1-.548-2.51,2.655,2.655,0,0,1,1.208-1.646.585.585,0,0,1,.853.265c.265.562.511,1.135.757,1.708a.59.59,0,0,1-.1.6c-.11.152-.229.294-.339.443a.624.624,0,0,0-.02.824,9.025,9.025,0,0,0,2.783,2.464.6.6,0,0,0,.853-.144,1.163,1.163,0,0,1,1.541-.392,11.638,11.638,0,0,0,1.121.333.64.64,0,0,1,.39,1.028,2.613,2.613,0,0,1-1.6,1.3C197.67,133.122,197.438,133.136,197.294,133.153Z" transform="translate(-180.544 -114.58)" fill="#fefefe"/></svg>